<svg xmlns="http://www.w3.org/2000/svg" width="100%" height="100%" viewBox="0 0 400 400" preserveAspectRatio="xMidYMid slice">
  <rect width="100%" height="100%" fill="#f3f4f6" />
  <path d="M200 150c-27.6 0-50 22.4-50 50s22.4 50 50 50 50-22.4 50-50-22.4-50-50-50zm0 80c-16.5 0-30-13.5-30-30s13.5-30 30-30 30 13.5 30 30-13.5 30-30 30z" fill="#9ca3af" />
  <path d="M260 130h-120c-16.5 0-30 13.5-30 30v80c0 16.5 13.5 30 30 30h120c16.5 0 30-13.5 30-30v-80c0-16.5-13.5-30-30-30zm10 110c0 5.5-4.5 10-10 10h-120c-5.5 0-10-4.5-10-10v-80c0-5.5 4.5-10 10-10h120c5.5 0 10 4.5 10 10v80z" fill="#9ca3af" />
</svg>